<?xml version="1.0" encoding="utf-8"?>
<!-- Generator: Adobe Illustrator 22.1.0, SVG Export Plug-In . SVG Version: 6.00 Build 0)  -->
<svg version="1.1" id="Layer_1" xmlns="http://www.w3.org/2000/svg" xmlns:xlink="http://www.w3.org/1999/xlink" x="0px" y="0px"
	 viewBox="0 0 202.49 191.99" style="enable-background:new 0 0 202.49 191.99;" xml:space="preserve">
<style type="text/css">
	.st0{fill:#E63B11;}
	.st1{fill:#FFFFFF;}
	.st2{fill-rule:evenodd;clip-rule:evenodd;fill:#FFFFFF;}
	.st3{fill:none;}
	.st4{clip-path:url(#XMLID_15_);}
	.st5{fill:url(#XMLID_16_);}
	.st6{fill:#FFFFFF;stroke:#FFFFFF;stroke-width:0.5229;stroke-miterlimit:22.9256;}
	.st7{fill-rule:evenodd;clip-rule:evenodd;fill:url(#XMLID_18_);}
	.st8{fill-rule:evenodd;clip-rule:evenodd;fill:url(#XMLID_19_);}
	.st9{fill-rule:evenodd;clip-rule:evenodd;fill:url(#XMLID_22_);}
	.st10{fill-rule:evenodd;clip-rule:evenodd;fill:url(#XMLID_23_);}
	.st11{clip-path:url(#XMLID_25_);}
	.st12{fill:url(#XMLID_26_);}
	.st13{fill-rule:evenodd;clip-rule:evenodd;fill:url(#XMLID_27_);}
	.st14{fill-rule:evenodd;clip-rule:evenodd;fill:url(#XMLID_28_);}
	.st15{fill-rule:evenodd;clip-rule:evenodd;fill:url(#XMLID_29_);}
	.st16{fill-rule:evenodd;clip-rule:evenodd;fill:url(#XMLID_67_);}
	.st17{fill:#EDEDED;}
	.st18{fill:#C6C6C6;}
	.st19{fill:#ACA9A8;}
	.st20{fill:#D7BB94;}
	.st21{fill:#EACFA5;}
	.st22{fill-rule:evenodd;clip-rule:evenodd;fill:#E63B11;}
	.st23{fill:#D71020;}
	.st24{fill:#E4032C;}
	.st25{fill:#161616;}
	.st26{fill:#E5CB32;}
	.st27{fill:#38B6AB;}
	.st28{fill:#CAD400;}
	.st29{fill:#FFDF30;}
	.st30{fill-rule:evenodd;clip-rule:evenodd;fill:#FFFFFF;stroke:#E63B11;stroke-width:0.0283;stroke-miterlimit:10;}
	.st31{stroke:#E63B11;stroke-width:0.0283;stroke-miterlimit:10;}
	.st32{fill:#FFFFFF;stroke:#E63B11;stroke-width:0.0283;stroke-miterlimit:10;}
	.st33{fill:none;stroke:#E63B11;stroke-width:0.0283;stroke-miterlimit:10;}
	.st34{clip-path:url(#XMLID_87_);}
	.st35{fill:url(#XMLID_88_);}
	.st36{fill-rule:evenodd;clip-rule:evenodd;fill:url(#XMLID_208_);}
	.st37{fill-rule:evenodd;clip-rule:evenodd;fill:url(#XMLID_209_);}
	.st38{fill-rule:evenodd;clip-rule:evenodd;fill:url(#XMLID_213_);}
	.st39{fill-rule:evenodd;clip-rule:evenodd;fill:url(#XMLID_214_);}
	.st40{clip-path:url(#XMLID_217_);}
	.st41{fill:#010202;}
	.st42{clip-path:url(#XMLID_219_);}
	.st43{fill:url(#XMLID_220_);}
	.st44{fill-rule:evenodd;clip-rule:evenodd;fill:url(#XMLID_221_);}
	.st45{fill-rule:evenodd;clip-rule:evenodd;fill:url(#XMLID_222_);}
	.st46{fill-rule:evenodd;clip-rule:evenodd;fill:url(#XMLID_223_);}
	.st47{fill-rule:evenodd;clip-rule:evenodd;fill:url(#XMLID_224_);}
	.st48{fill:none;stroke:#000000;stroke-miterlimit:10;}
	.st49{fill:#FFFFFF;stroke:#000000;stroke-width:0.2835;stroke-miterlimit:10;}
	.st50{fill:#E94E2B;}
	.st51{fill:#1E1E1C;}
</style>
<g id="XMLID_390_">
	<polygon id="XMLID_396_" class="st51" points="43.685,132.086 32.468,150.465 32.867,132.086 23.385,132.086 12.549,150.477 
		12.559,132.086 3.904,132.086 5.245,160.453 14.105,160.453 25.361,141.351 25.056,160.453 33.941,160.453 52.521,132.086 	"/>
	<path id="XMLID_393_" class="st51" d="M64.684,132.086l-24.015,28.367h8.42l4.95-5.849h16.974l1.383,5.849h8.074l-6.702-28.367
		H64.684z M69.447,148.169H59.444l7.792-9.204L69.447,148.169z"/>
	<path id="XMLID_392_" class="st51" d="M117.656,144.846c-1.707-1.282-4.737-2.107-9.259-2.522c-0.803-0.076-2.691-0.188-5.782-0.34
		c-1.98-0.072-3.439-0.229-4.344-0.47c-0.963-0.241-1.26-0.542-1.351-0.701c-0.047-0.08-0.099-0.218-0.02-0.479
		c0.335-1.101,2.172-2.413,9.021-2.413c4.138,0,7.803,0.989,10.892,2.94l0.392,0.247l6.063-5.124l-0.575-0.462
		c-3.394-2.728-8.599-4.112-15.468-4.112c-5.02,0-9.197,0.804-12.416,2.389c-3.292,1.621-5.402,3.89-6.272,6.745
		c-0.886,2.908-0.012,5.177,2.52,6.555c2.241,1.261,6.072,1.986,11.712,2.217c3.595,0.148,5.843,0.319,6.685,0.51
		c0.925,0.206,1.265,0.494,1.387,0.7c0.037,0.062,0.15,0.252,0.024,0.665c-0.285,0.935-1.203,1.724-2.721,2.343
		c-1.711,0.668-3.914,1.007-6.548,1.007c-4.908,0-9.264-1.372-12.947-4.077l-0.41-0.301l-5.922,5.222l0.533,0.455
		c4.081,3.483,9.74,5.249,16.821,5.249c5.3,0,9.685-0.849,13.032-2.522c3.418-1.707,5.634-4.158,6.587-7.288
		C120.16,148.42,119.607,146.253,117.656,144.846z"/>
	<polygon id="XMLID_391_" class="st51" points="198.404,141.942 161.871,141.942 164.861,132.124 156.831,132.124 153.841,141.942 
		135.132,142.021 138.145,132.124 130.115,132.124 121.489,160.453 129.519,160.453 133.069,148.794 151.755,148.794 
		148.205,160.453 156.234,160.453 159.844,148.601 196.525,148.601 	"/>
</g>
<path id="XMLID_388_" class="st22" d="M59.238,76.012l3.948,7.276c-0.367,0.349-0.651,0.77-0.796,1.224
	c-0.122,0.381-0.132,0.74-0.046,1.052l-0.845,0.799l1.58,1.279l1.016-0.96c0.284-0.008,0.569-0.062,0.846-0.156l0.544,1.003
	l1.403-0.85l-0.557-1.027c0.325-0.331,0.577-0.722,0.711-1.139c0.08-0.248,0.111-0.487,0.1-0.709l6.096-5.76l-1.582-1.279
	l-5.925,5.599c-0.102-0.014-0.209-0.022-0.32-0.022c-0.27,0-0.543,0.044-0.809,0.122l-3.96-7.3L59.238,76.012L59.238,76.012z"/>
<path id="XMLID_385_" class="st51" d="M98.145,36.101c-2.614,0-5.377,1.985-6.157,4.425c-0.781,2.44,0.711,4.424,3.325,4.424
	c2.614,0,5.376-1.984,6.157-4.424C102.251,38.086,100.759,36.101,98.145,36.101z M95.95,42.959c-1.438,0-2.258-1.091-1.829-2.433
	c0.429-1.342,1.949-2.434,3.387-2.434c1.438,0,2.258,1.092,1.829,2.434C98.907,41.868,97.388,42.959,95.95,42.959z"/>
<path id="XMLID_382_" class="st51" d="M109.831,36.101c-2.614,0-5.376,1.985-6.157,4.425c-0.781,2.44,0.711,4.424,3.325,4.424
	c2.614,0,5.376-1.984,6.157-4.424C113.937,38.086,112.445,36.101,109.831,36.101z M107.636,42.959c-1.437,0-2.258-1.091-1.829-2.433
	c0.429-1.342,1.949-2.434,3.386-2.434c1.438,0,2.258,1.092,1.829,2.434C110.593,41.868,109.074,42.959,107.636,42.959z"/>
<g id="XMLID_374_">
	<path id="XMLID_376_" class="st0" d="M192.284,95.85H166.37l5.731-17.906l1.833-5.727h-6.119h-11.416h-1.419l-1.162,0.799
		l-33.073,22.756c0.988-1.434,1.777-3.015,2.334-4.756c1.808-5.652,0.351-10.814-4.103-14.535
		c-3.804-3.177-9.296-4.787-16.325-4.787c-2.661,0-5.385,0.269-8.164,0.802C92.769,63.165,84.678,56.69,72.92,56.69
		c-16.217,0-33.351,12.312-38.194,27.446c-4.843,15.134,4.41,27.447,20.626,27.447c2.609,0,5.241-0.323,7.842-0.92
		c-0.453,0.963-0.87,1.954-1.248,2.977l-0.419,1.135l-2.18,5.907h6.405h45.544h3.299l0.988-3.087l1.259-3.935h1.946h20.665
		l-0.414,1.296l-1.832,5.727h6.119h11.798h3.299l0.988-3.087l1.259-3.935h28.735h3.298l0.988-3.087l2.88-8.997l1.833-5.727H192.284z
		 M64.489,108.182c-2.781,0.743-5.612,1.144-8.414,1.144c-14.883,0-23.375-11.3-18.93-25.19c4.445-13.89,20.17-25.189,35.053-25.189
		c10.628,0,17.993,5.764,19.719,14.117c-1.62,0.4-3.257,0.889-4.911,1.464c-0.464-1.714-1.226-3.282-2.258-4.655
		c-2.813-3.745-7.616-6.061-13.738-6.061c-6.122,0-12.407,2.316-17.617,6.061c-5.21,3.744-9.347,8.917-11.176,14.631
		c-1.828,5.713-1.002,10.886,1.811,14.631c3.215,4.26,11.399,8.584,23.513,4.143c0,0,0.253-0.139,0.68-0.382
		C66.816,104.523,65.571,106.286,64.489,108.182z M73.418,86.614l3.725,4.984c-1.386,1.649-3.405,3.644-6.036,5.175l0.003-0.007
		c-0.005,0.003-0.011,0.006-0.016,0.009l-0.818-1.639l-0.974,0.468l0.843,1.689c-0.179,0.094-0.357,0.19-0.543,0.277l-0.004,0.01
		c-2.98,1.513-5.663,2.256-7.996,2.539l-0.068-2.229l-1.084,0.032l0.07,2.292c-4.624,0.296-7.693-1.205-8.684-1.807l1.358-1.446
		l-0.826-0.537l-1.349,1.438c-0.85-0.624-1.588-1.352-2.202-2.169c-0.661-0.88-1.179-1.863-1.538-2.93l1.817-0.835l-0.278-0.93
		l-1.808,0.831c-0.449-1.869-0.44-3.958,0.098-6.172h1.812l0.85-2.656h-1.781c0.916-2.178,2.266-4.229,3.921-6.06l1.283,0.834
		l0.873-0.93l-1.274-0.83c0.982-0.98,2.052-1.886,3.189-2.703c1.224-0.88,2.526-1.656,3.878-2.311l0.432,1.446l1.17-0.538
		l-0.43-1.439c2.193-0.925,4.495-1.527,6.793-1.723l-0.744,2.324h2.846l0.753-2.353c2.42,0.166,4.535,0.827,6.264,1.878
		l-1.358,1.446l0.826,0.537l1.349-1.438c0.851,0.624,1.588,1.352,2.202,2.169c0.661,0.88,1.179,1.862,1.538,2.929l0.127,0.441
		c-1.974,0.893-3.966,1.898-5.977,3.028l-0.842,0.474l-4.358,2.452L73.418,86.614z M111.296,116.276H65.752l0.419-1.135
		c0.005-0.013,0.011-0.026,0.016-0.039c0.216-0.584,0.448-1.157,0.693-1.717c0.201-0.46,0.419-0.906,0.638-1.351
		c0.047-0.095,0.09-0.194,0.138-0.289c1.215-2.399,2.707-4.578,4.481-6.527l0,0v0c0.117-0.128,0.242-0.25,0.361-0.376
		c0.278-0.295,0.559-0.588,0.851-0.872c0.193-0.189,0.394-0.371,0.592-0.555c0.222-0.205,0.447-0.408,0.676-0.607
		c0.237-0.207,0.478-0.41,0.723-0.61c0.185-0.151,0.375-0.298,0.564-0.445c0.292-0.227,0.584-0.455,0.886-0.674
		c0.015-0.011,0.031-0.021,0.046-0.032c1.259-0.908,2.613-1.738,4.049-2.497c0.035-0.018,0.07-0.037,0.105-0.056
		c1.816-0.952,3.772-1.783,5.867-2.496l0.001,0c0.482-0.164,0.967-0.324,1.464-0.475c0.569-0.177,1.146-0.346,1.738-0.504
		c0.002-0.001,0.004-0.001,0.007-0.002l6.338-1.526l6.339-1.526c0.341-0.099,0.666-0.202,0.973-0.309
		c0.615-0.214,1.162-0.443,1.637-0.686c1.188-0.607,1.928-1.298,2.166-2.043c0.246-0.77,0.213-1.376-0.069-1.862
		c-0.04-0.069-0.07-0.144-0.121-0.208c-0.038-0.047-0.08-0.095-0.127-0.143c-0.424-0.433-1.242-0.892-2.806-1.189
		c-0.869-0.165-1.967-0.281-3.355-0.315c-0.277-0.007-0.567-0.01-0.868-0.01c-0.633,0-1.27,0.03-1.909,0.077
		c-0.426,0.033-0.856,0.085-1.285,0.139c-0.187,0.023-0.373,0.04-0.561,0.067c-0.557,0.081-1.116,0.18-1.677,0.295
		c-0.045,0.009-0.09,0.017-0.135,0.026c-0.608,0.128-1.218,0.274-1.831,0.441c-0.932,0.253-1.867,0.546-2.808,0.892
		c-0.451,0.166-0.904,0.352-1.358,0.538c-0.209,0.087-0.418,0.172-0.628,0.263c-0.385,0.167-0.771,0.343-1.158,0.525
		c-0.333,0.157-0.666,0.323-1,0.491c-0.294,0.148-0.588,0.294-0.883,0.451c-0.653,0.35-1.308,0.713-1.964,1.106l-0.743,0.445
		l-5.194-6.951l0.84-0.473c0.588-0.33,1.173-0.648,1.756-0.956c0.185-0.098,0.369-0.189,0.553-0.285
		c0.399-0.207,0.797-0.411,1.194-0.608c0.216-0.107,0.43-0.208,0.645-0.312c0.367-0.177,0.734-0.352,1.099-0.52
		c0.221-0.101,0.44-0.2,0.66-0.298c0.362-0.162,0.723-0.32,1.083-0.473c0.214-0.091,0.429-0.181,0.642-0.269
		c0.37-0.152,0.739-0.299,1.107-0.441c0.2-0.078,0.4-0.156,0.6-0.231c0.394-0.148,0.787-0.289,1.179-0.426
		c0.17-0.06,0.34-0.122,0.509-0.179c0.478-0.162,0.954-0.315,1.428-0.461c0.08-0.025,0.161-0.052,0.241-0.076
		c2.766-0.837,5.469-1.395,8.102-1.679c0.096-0.01,0.191-0.019,0.287-0.028c0.502-0.05,1.002-0.091,1.499-0.121
		c0.143-0.009,0.287-0.019,0.43-0.026c0.588-0.029,1.174-0.048,1.754-0.048c5.932,0,10.444,1.257,13.412,3.735
		c1.155,0.965,2.007,2.035,2.552,3.205c0.909,1.949,0.971,4.175,0.177,6.656c-0.986,3.081-2.873,5.54-5.609,7.308
		c-1.99,1.286-4.638,2.411-7.901,3.359c-1.088,0.316-2.244,0.612-3.466,0.888c-1.724,0.391-3.263,0.742-4.614,1.052
		c-0.338,0.077-0.664,0.152-0.978,0.225c-3.456,0.795-5.492,1.278-6.07,1.441c-2.749,0.847-5.162,1.958-7.194,3.311h31.214h0
		l-1.92,5.998L111.296,116.276z M189.404,109.254h-32.033l-2.247,7.022h-11.798l2.247-7.022h-26.784l2.772-8.66l34.838-23.971
		h11.416l-7.563,23.634h32.034L189.404,109.254z"/>
	<polygon id="XMLID_375_" class="st0" points="148.452,100.257 152.152,88.695 135.286,100.257 	"/>
</g>
<path id="XMLID_373_" class="st3" d="M100.897,76.147c-0.143,0.007-0.286,0.017-0.43,0.026c-0.497,0.03-0.997,0.07-1.499,0.121
	c-0.096,0.01-0.191,0.018-0.287,0.028c-2.633,0.284-5.336,0.842-8.102,1.679c-0.08,0.024-0.161,0.052-0.241,0.076
	c-0.474,0.146-0.95,0.299-1.428,0.461c-0.169,0.057-0.339,0.119-0.509,0.179c-0.392,0.137-0.785,0.277-1.179,0.426
	c-0.199,0.075-0.4,0.153-0.6,0.231c-0.368,0.143-0.737,0.289-1.107,0.441c-0.214,0.088-0.428,0.178-0.642,0.269
	c-0.36,0.153-0.721,0.311-1.083,0.473c-0.22,0.098-0.439,0.196-0.66,0.298c-0.366,0.168-0.732,0.343-1.099,0.52
	c-0.215,0.104-0.43,0.205-0.645,0.312c-0.397,0.196-0.795,0.401-1.194,0.608c-0.184,0.096-0.368,0.187-0.553,0.285
	c-0.583,0.308-1.169,0.626-1.756,0.956l-0.84,0.473l5.194,6.951l0.743-0.445c0.656-0.393,1.311-0.757,1.964-1.106
	c0.295-0.157,0.589-0.303,0.883-0.451c0.334-0.169,0.667-0.334,1-0.491c0.387-0.182,0.773-0.358,1.158-0.525
	c0.21-0.091,0.418-0.176,0.628-0.263c0.453-0.187,0.906-0.372,1.358-0.538c0.941-0.347,1.876-0.639,2.808-0.892
	c0.612-0.166,1.223-0.313,1.831-0.441c0.045-0.009,0.09-0.017,0.135-0.026c0.561-0.116,1.12-0.214,1.677-0.295
	c0.188-0.027,0.374-0.044,0.561-0.067c0.429-0.054,0.858-0.107,1.285-0.139c0.639-0.047,1.277-0.077,1.909-0.077
	c0.301,0,0.591,0.003,0.868,0.01c1.388,0.034,2.487,0.15,3.355,0.315c1.563,0.297,2.382,0.756,2.806,1.189
	c0.047,0.048,0.089,0.096,0.127,0.143c0.051,0.064,0.08,0.139,0.121,0.208c0.282,0.485,0.316,1.092,0.069,1.862
	c-0.238,0.744-0.979,1.436-2.166,2.043c-0.475,0.243-1.022,0.472-1.637,0.686c-0.307,0.107-0.632,0.21-0.973,0.309l-6.339,1.526
	l-6.338,1.526c-0.002,0.001-0.004,0.001-0.007,0.002c-0.592,0.157-1.169,0.327-1.738,0.504c-0.496,0.151-0.982,0.312-1.464,0.475
	l-0.001,0c-2.095,0.712-4.052,1.544-5.867,2.496c-0.035,0.018-0.07,0.037-0.105,0.056c-1.437,0.759-2.79,1.589-4.049,2.497
	c-0.015,0.011-0.031,0.021-0.046,0.032c-0.302,0.219-0.594,0.446-0.886,0.674c-0.189,0.147-0.379,0.294-0.564,0.445
	c-0.245,0.2-0.485,0.404-0.723,0.61c-0.229,0.199-0.454,0.402-0.676,0.607c-0.199,0.184-0.399,0.367-0.592,0.555
	c-0.292,0.284-0.573,0.577-0.851,0.872c-0.119,0.126-0.244,0.248-0.361,0.376v0l0,0c-1.774,1.95-3.266,4.129-4.481,6.527
	c-0.048,0.094-0.091,0.193-0.138,0.289c-0.22,0.445-0.438,0.891-0.638,1.351c-0.246,0.561-0.477,1.133-0.693,1.717
	c-0.005,0.013-0.011,0.026-0.016,0.039l-0.419,1.135h45.544l0.96-2.999l1.92-5.998h0H82.961c2.032-1.353,4.445-2.464,7.194-3.311
	c0.578-0.163,2.613-0.646,6.07-1.441c0.315-0.072,0.64-0.147,0.978-0.225c1.351-0.31,2.889-0.66,4.614-1.052
	c1.222-0.276,2.378-0.572,3.466-0.888c3.263-0.948,5.912-2.074,7.901-3.359c2.736-1.768,4.623-4.227,5.609-7.308
	c0.794-2.481,0.733-4.707-0.177-6.656c-0.546-1.169-1.397-2.239-2.552-3.205c-2.968-2.478-7.48-3.735-13.412-3.735
	C102.071,76.099,101.485,76.118,100.897,76.147z"/>
<path id="XMLID_372_" class="st3" d="M113.016,33.346H49.538c-3.561,0-7.4,2.596-8.384,5.669l-3.162,9.879h76.041l3.334-10.417
	c0.42-1.313,0.267-2.551-0.432-3.485C116.152,33.946,114.724,33.346,113.016,33.346z"/>
<path id="XMLID_371_" class="st3" d="M67.541,103.277c-12.114,4.441-20.298,0.118-23.513-4.143
	c-2.813-3.745-3.64-8.918-1.811-14.631c1.828-5.714,5.966-10.887,11.176-14.631c5.21-3.745,11.495-6.061,17.617-6.061
	c6.122,0,10.924,2.316,13.738,6.061c1.032,1.373,1.794,2.941,2.258,4.655c1.653-0.575,3.291-1.064,4.911-1.464
	c-1.726-8.353-9.091-14.117-19.719-14.117c-14.883,0-30.608,11.3-35.053,25.189c-4.445,13.89,4.047,25.19,18.93,25.19
	c2.802,0,5.634-0.401,8.414-1.144c1.082-1.896,2.326-3.659,3.732-5.287C67.793,103.138,67.541,103.277,67.541,103.277z"/>
<path id="XMLID_370_" class="st3" d="M59.348,120.683l2.18-5.907l0.419-1.135c0.377-1.023,0.795-2.015,1.248-2.977
	c-2.601,0.598-5.233,0.92-7.842,0.92c-16.217,0-25.47-12.313-20.626-27.447C39.569,69.002,56.703,56.69,72.92,56.69
	c11.758,0,19.85,6.475,21.567,15.803c2.779-0.533,5.503-0.802,8.164-0.802c1.393,0,2.708,0.081,3.979,0.208
	c0-0.004-0.001-0.007-0.001-0.011l6.099-18.922h-6.452c-0.079,0-0.153-0.015-0.229-0.023H36.695l-16.948,52.655h7.615
	c1.145,0,2.075,0.913,2.075,2.035s-0.931,2.036-2.075,2.036h-8.926l-1.898,5.898c-0.42,1.312-0.267,2.549,0.432,3.482
	c0.784,1.047,2.214,1.649,3.922,1.649h63.478c0.076,0,0.152-0.014,0.228-0.017H65.752H59.348z"/>
<path id="XMLID_369_" class="st3" d="M75.648,79.712c2.011-1.13,4.003-2.135,5.977-3.028l-0.127-0.441
	c-0.36-1.067-0.877-2.05-1.538-2.929c-0.614-0.817-1.352-1.546-2.202-2.169l-1.349,1.438l-0.826-0.537l1.358-1.446
	c-1.73-1.051-3.844-1.712-6.264-1.878l-0.753,2.353h-2.846l0.744-2.324c-2.298,0.196-4.6,0.798-6.793,1.723l0.43,1.439l-1.17,0.538
	l-0.432-1.446c-1.352,0.654-2.654,1.431-3.878,2.311c-1.137,0.817-2.207,1.723-3.189,2.703l1.274,0.83l-0.873,0.93l-1.283-0.834
	c-1.655,1.831-3.004,3.881-3.921,6.06h1.781l-0.85,2.656h-1.812c-0.537,2.214-0.547,4.303-0.098,6.172l1.808-0.831l0.278,0.93
	l-1.817,0.835c0.359,1.067,0.877,2.049,1.538,2.93c0.614,0.817,1.352,1.545,2.202,2.169l1.349-1.438l0.826,0.537l-1.358,1.446
	c0.991,0.602,4.06,2.104,8.684,1.807l-0.07-2.292l1.084-0.032l0.068,2.229c2.334-0.283,5.016-1.026,7.996-2.539l0.004-0.01
	c0.186-0.087,0.364-0.183,0.543-0.277l-0.843-1.689l0.974-0.468l0.818,1.639c0.005-0.003,0.011-0.006,0.016-0.009l-0.003,0.007
	c2.631-1.532,4.65-3.527,6.036-5.175l-3.725-4.984l-2.97-3.975l4.358-2.452L75.648,79.712z"/>
<path id="XMLID_366_" d="M151.347,48.894h-32.995l3.177-9.879c0.791-2.472,0.471-4.842-0.9-6.674
	c-1.448-1.934-3.959-3.044-6.891-3.044H50.261c-5.696,0-11.648,4.118-13.267,9.18l-21.584,67.123H5.98
	c-1.145,0-2.076,0.913-2.076,2.035s0.931,2.036,2.076,2.036H14.1l-1.723,5.36c-0.791,2.472-0.471,4.842,0.9,6.673
	c1.449,1.935,3.961,3.045,6.894,3.045h63.478c3.564,0,7.219-1.618,9.857-4.066h-8.907c-0.076,0.002-0.152,0.017-0.228,0.017H20.893
	c-1.708,0-3.138-0.601-3.922-1.649c-0.699-0.933-0.852-2.17-0.432-3.482l1.898-5.898h8.926c1.145,0,2.075-0.914,2.075-2.036
	s-0.931-2.035-2.075-2.035h-7.615l16.948-52.655h69.351c0.076,0.008,0.151,0.023,0.229,0.023h6.452l-6.099,18.922
	c0,0.004,0.001,0.007,0.001,0.011c1.449,0.144,2.818,0.369,4.105,0.675c0.002-0.005,0.004-0.009,0.005-0.014l6.302-19.594h34.304
	c1.145,0,2.076-0.914,2.076-2.037C153.423,49.808,152.491,48.894,151.347,48.894z M117.367,38.477l-3.334,10.417H37.992l3.162-9.879
	c0.984-3.073,4.823-5.669,8.384-5.669h63.478c1.707,0,3.136,0.6,3.919,1.647C117.635,35.926,117.788,37.164,117.367,38.477z"/>
<path id="XMLID_365_" class="st0" d="M122.821,64.945h45.071c0.893,0,1.619-0.712,1.619-1.588c0-0.876-0.726-1.588-1.619-1.588
	h-45.071c-0.893,0-1.619,0.712-1.619,1.588C121.203,64.233,121.929,64.945,122.821,64.945z"/>
<path id="XMLID_362_" class="st0" d="M25.95,45.398h35.688c1.811,0,3.725-1.375,4.266-3.066l1.07-3.345
	c0.279-0.871,0.17-1.703-0.308-2.342c-0.479-0.64-1.259-0.992-2.197-0.992H28.782c-1.811,0-3.725,1.376-4.266,3.066l-1.07,3.345
	c-0.279,0.872-0.17,1.703,0.308,2.342C24.233,45.046,25.013,45.398,25.95,45.398z M27.521,38.987
	c0.075-0.233,0.372-0.447,0.624-0.447h35.688c0.078,0,0.122,0.021,0.137,0.041c0.019,0.025,0.018,0.078-0.001,0.138l-1.07,3.345
	c-0.075,0.234-0.372,0.447-0.624,0.447H26.587c-0.078,0-0.122-0.021-0.137-0.041c-0.019-0.025-0.018-0.078,0.001-0.138
	L27.521,38.987z"/>
</svg>
